<svg id="line" height="512" viewBox="0 0 64 64" width="512" xmlns="http://www.w3.org/2000/svg"><path d="m42 21a21 21 0 1 0 21 21 21.024 21.024 0 0 0 -21-21zm11.625 15.781-15 12a1 1 0 0 1 -1.332-.074l-7-7a1 1 0 0 1 1.414-1.414l6.367 6.367 14.3-11.441a1 1 0 1 1 1.25 1.562z" fill="#c4a2fc"/><g fill="#151a6a"><path d="m48 1h-44a3 3 0 0 0 -3 3v28a3 3 0 0 0 3 3h44a3 3 0 0 0 3-3v-28a3 3 0 0 0 -3-3zm-45 31v-28a1 1 0 0 1 1-1h21v30h-21a1 1 0 0 1 -1-1zm46 0a1 1 0 0 1 -1 1h-21v-30h21a1 1 0 0 1 1 1z"/><path d="m17.305 17.723a5 5 0 1 0 -6.61 0 8.005 8.005 0 0 0 -4.695 7.277v1a1 1 0 0 0 1 1h14a1 1 0 0 0 1-1v-1a8.005 8.005 0 0 0 -4.695-7.277zm-6.305-3.723a3 3 0 1 1 3 3 3 3 0 0 1 -3-3zm-3 11a6 6 0 0 1 12 0z"/><path d="m34 11h8a1 1 0 0 0 0-2h-8a1 1 0 0 0 0 2z"/><path d="m45 17h-14a1 1 0 0 0 0 2h14a1 1 0 0 0 0-2z"/><path d="m42 25h-8a1 1 0 0 0 0 2h8a1 1 0 0 0 0-2z"/></g></svg>