<svg id="line" height="512" viewBox="0 0 64 64" width="512" xmlns="http://www.w3.org/2000/svg"><path d="m41.522 32.982c-1.976 0-4.021 1.83-4.021 4.89 0 2.837 1.747 5.146 3.894 5.146 2.061 0 3.736-2.291 3.761-5.119v-.124c-.021-2.823-1.507-4.793-3.634-4.793z" fill="#c4a2fc"/><path d="m60 17h-36a3 3 0 0 0 -3 3v36a3 3 0 0 0 3 3h36a3 3 0 0 0 3-3v-36a3 3 0 0 0 -3-3zm-6.122 24.974a5.525 5.525 0 0 1 -5.109 3.649 3.647 3.647 0 0 1 -3.379-2.572 5.211 5.211 0 0 1 -3.99 1.967c-3.25 0-5.894-3.2-5.894-7.146 0-4.312 3.062-6.89 6.021-6.89a5.107 5.107 0 0 1 3.657 1.518l.006-1.375a1 1 0 0 1 1-.995h.01a1 1 0 0 1 .995 1l-.057 10.53a1.873 1.873 0 0 0 1.631 1.963 3.577 3.577 0 0 0 3.251-2.388 9.675 9.675 0 0 0 .584-6.442 11 11 0 0 0 -21.161 6 11.065 11.065 0 0 0 10.333 8.207 1 1 0 0 1 -.026 2h-.028a13 13 0 0 1 -3.586-25.384 13 13 0 0 1 16.391 8.63l.006.025v.006a11.628 11.628 0 0 1 -.655 7.697z" fill="#c4a2fc"/><g fill="#151a6a"><path d="m48 5h-44a3 3 0 0 0 -3 3v28a3 3 0 0 0 3 3h44a3 3 0 0 0 3-3v-28a3 3 0 0 0 -3-3zm-.9 2-20.457 17.156a1 1 0 0 1 -1.286 0l-20.457-17.156zm.9 30h-44a1 1 0 0 1 -1-1v-27.979l21.073 17.668a3 3 0 0 0 3.855 0l21.072-17.667v27.978a1 1 0 0 1 -1 1z"/><path d="m19 32h-12a1 1 0 0 0 0 2h12a1 1 0 0 0 0-2z"/><path d="m7 29h6a1 1 0 0 0 0-2h-6a1 1 0 0 0 0 2z"/></g></svg>