<?xml version="1.0" encoding="iso-8859-1"?>
<!-- Generator: Adobe Illustrator 19.0.0, SVG Export Plug-In . SVG Version: 6.00 Build 0)  -->
<svg version="1.1" id="Capa_1" xmlns="http://www.w3.org/2000/svg" xmlns:xlink="http://www.w3.org/1999/xlink" x="0px" y="0px"
	 viewBox="0 0 487.176 487.176" style="enable-background:new 0 0 487.176 487.176;" xml:space="preserve">
<circle style="fill:#E1E6E9;" cx="243.588" cy="243.588" r="243.588"/>
<path style="fill:#FFFFFF;" d="M308.752,22.497c-68.267,0-124.121,55.855-124.121,124.121h247.467
	C432.097,78.352,377.018,22.497,308.752,22.497z"/>
<path style="fill:#193651;" d="M439.855,154.376H176.873v-7.758c0-72.921,58.958-131.879,131.879-131.879
	S440.63,73.697,440.63,146.618v7.758H439.855z M192.388,138.861h231.952c-3.879-60.509-54.303-108.606-115.588-108.606
	C246.691,30.255,196.267,78.352,192.388,138.861z"/>
<rect x="400.291" y="386.327" style="fill:#193651;" width="16.291" height="15.515"/>
<rect x="447.612" y="386.327" style="fill:#193651;" width="16.291" height="15.515"/>
<rect x="424.339" y="362.279" style="fill:#193651;" width="15.515" height="16.291"/>
<rect x="424.339" y="408.824" style="fill:#193651;" width="15.515" height="16.291"/>
<rect x="23.273" y="124.121" style="fill:#FFFFFF;" width="435.2" height="79.127"/>
<path style="fill:#193651;" d="M458.473,211.782h-435.2c-4.655,0-7.758-3.103-7.758-7.758v-79.903c0-4.655,3.103-7.758,7.758-7.758
	h435.2c4.655,0,7.758,3.103,7.758,7.758v79.127C466.23,207.903,462.352,211.782,458.473,211.782z M31.03,196.267h419.685v-63.612
	H31.03V196.267z"/>
<rect x="254.449" y="286.255" style="fill:#FFFFFF;" width="112.485" height="178.424"/>
<path style="fill:#193651;" d="M367.709,472.436H254.449c-4.655,0-7.758-3.103-7.758-7.758V286.255c0-4.655,3.103-7.758,7.758-7.758
	h113.261c4.655,0,7.758,3.103,7.758,7.758v178.424C375.467,468.558,371.588,472.436,367.709,472.436z M262.206,456.921h97.745
	V294.012h-97.745V456.921z"/>
<rect x="285.479" y="317.285" style="fill:#4FBF9F;" width="51.2" height="139.636"/>
<path style="fill:#FDBF5E;" d="M382.449,106.279c-10.861-0.776-20.17,6.982-20.17,17.842v-12.412
	c0-9.309-6.982-17.842-16.291-18.618c-10.861-0.776-20.17,6.982-20.17,17.842V96.97c0-10.085-7.758-17.842-17.842-17.842l0,0
	c-10.085,0-17.842,7.758-17.842,17.842v13.964c0-10.861-9.309-18.618-20.17-17.842c-9.309,0.776-16.291,9.309-16.291,18.618v92.315
	h-35.685v22.497c0,23.273,10.861,44.994,31.03,57.406c1.552,0.776,3.103,1.552,5.43,3.103h113.261c0,0,6.206-18.618,13.188-27.927
	c10.861-14.739,17.842-32.582,17.842-50.424v-83.006C397.964,116.364,391.758,107.83,382.449,106.279z"/>
<g>
	<path style="fill:#193651;" d="M367.709,294.012H254.449c-1.552,0-2.327,0-3.103-0.776c-2.327-0.776-3.879-2.327-5.43-3.103
		c-20.945-13.188-34.909-37.236-34.909-63.612v-22.497c0-4.655,3.103-7.758,7.758-7.758h27.927v-84.558
		c0-13.964,10.085-25.6,23.273-26.376c5.43-0.776,10.085,0.776,14.739,3.103c3.879-10.085,13.188-17.067,24.048-17.067
		c10.861,0,20.17,6.982,24.048,17.067c3.879-2.327,9.309-3.103,14.739-3.103c9.309,0.776,17.842,7.758,20.945,17.067
		c4.655-2.327,9.309-3.103,14.739-3.103c13.188,1.552,23.273,13.188,23.273,26.376v82.23c0,19.394-6.982,38.012-19.394,55.079
		c-5.43,6.982-10.085,20.945-11.636,25.6C373.915,291.685,370.812,294.012,367.709,294.012z M256.776,278.497h105.503
		c2.327-6.206,6.982-17.842,12.412-24.824c10.861-13.964,16.291-30.255,16.291-45.77v-82.23c0-5.43-3.879-10.861-9.309-10.861
		c-6.206-0.776-11.636,3.879-11.636,10.085c0,4.655-3.103,7.758-7.758,7.758c-4.655,0-7.758-3.103-7.758-7.758v-13.188
		c0-5.43-3.879-10.861-9.309-10.861c-6.206-0.776-11.636,3.879-11.636,10.085c0,4.655-3.103,7.758-7.758,7.758
		s-7.758-3.103-7.758-7.758V96.97c0-5.43-4.655-10.085-10.085-10.085c-5.43,0-10.085,3.879-10.085,10.085v13.964
		c0,4.655-3.103,7.758-7.758,7.758s-7.758-3.103-7.758-7.758c0-6.206-5.43-10.861-11.636-10.085
		c-5.43,0.776-9.309,5.43-9.309,10.861v92.315c0,4.655-3.103,7.758-7.758,7.758h-27.927v14.739
		c0,20.945,10.085,40.339,27.152,50.424C254.449,277.721,255.224,277.721,256.776,278.497z"/>
	<path style="fill:#193651;" d="M362.279,190.836c-4.655,0-7.758-3.103-7.758-7.758v-58.182c0-4.655,3.103-7.758,7.758-7.758
		c4.655,0,7.758,3.103,7.758,7.758v58.182C370.036,186.958,366.933,190.836,362.279,190.836z"/>
	<path style="fill:#193651;" d="M326.594,190.836c-4.655,0-7.758-3.103-7.758-7.758v-72.145c0-4.655,3.103-7.758,7.758-7.758
		c4.655,0,7.758,3.103,7.758,7.758v72.145C334.352,186.958,330.473,190.836,326.594,190.836z"/>
	<path style="fill:#193651;" d="M290.133,190.836c-4.655,0-7.758-3.103-7.758-7.758v-72.145c0-4.655,3.103-7.758,7.758-7.758
		s7.758,3.103,7.758,7.758v72.145C297.891,186.958,294.788,190.836,290.133,190.836z"/>
	<rect x="303.321" y="345.212" style="fill:#193651;" width="15.515" height="15.515"/>
	<rect x="303.321" y="382.449" style="fill:#193651;" width="15.515" height="15.515"/>
	<rect x="303.321" y="420.461" style="fill:#193651;" width="15.515" height="15.515"/>
</g>
<polygon style="fill:#F16051;" points="130.327,249.794 96.97,227.297 63.612,249.794 63.612,78.352 130.327,78.352 "/>
<g>
	<path style="fill:#193651;" d="M130.327,257.552c-1.552,0-3.103-0.776-4.655-1.552L96.97,236.606L68.267,256
		c-2.327,1.552-5.43,1.552-7.758,0.776c-2.327-1.552-3.879-3.879-3.879-6.982V79.127c0-4.655,3.103-7.758,7.758-7.758h65.939
		c4.655,0,7.758,3.103,7.758,7.758v170.667c0,3.103-1.552,5.43-3.879,6.982C132.655,257.552,131.103,257.552,130.327,257.552z
		 M96.97,219.539c1.552,0,3.103,0.776,4.655,1.552l20.945,13.964V86.109H72.145v148.945l20.945-13.964
		C93.867,219.539,95.418,219.539,96.97,219.539z"/>
	<rect x="60.509" y="286.255" style="fill:#193651;" width="15.515" height="105.503"/>
	<rect x="60.509" y="405.721" style="fill:#193651;" width="15.515" height="16.291"/>
	<rect x="94.642" y="314.958" style="fill:#193651;" width="15.515" height="105.503"/>
	<rect x="94.642" y="434.424" style="fill:#193651;" width="15.515" height="16.291"/>
	<rect x="128.776" y="286.255" style="fill:#193651;" width="15.515" height="105.503"/>
	<rect x="128.776" y="405.721" style="fill:#193651;" width="15.515" height="16.291"/>
</g>
<g>
</g>
<g>
</g>
<g>
</g>
<g>
</g>
<g>
</g>
<g>
</g>
<g>
</g>
<g>
</g>
<g>
</g>
<g>
</g>
<g>
</g>
<g>
</g>
<g>
</g>
<g>
</g>
<g>
</g>
</svg>
