<svg id="Capa_1" enable-background="new 0 0 512 512" height="512" viewBox="0 0 512 512" width="512" xmlns="http://www.w3.org/2000/svg"><g><g><path d="m225.066 392.266v104.734h30.934l20-52.367-20-52.367z" fill="#b9c3cd"/><path d="m256 392.266h30.934v104.734h-30.934z" fill="#909ba6"/></g><g><path d="m256 512h-124.766v-30h124.766l20 15z" fill="#dce6eb"/></g><g><path d="m0 80.943v273.247l256 20 30-104.936-30-188.311z" fill="#07485e"/><path d="m512 80.943h-256v293.247l256-20z" fill="#04303e"/></g><g><path d="m0 354.19v61.867h256l20-30.934-20-30.933z" fill="#dce6eb"/><path d="m256 354.19h256v61.867h-256z" fill="#b9c3cd"/></g><g><path d="m256 482h124.766v30h-124.766z" fill="#b9c3cd"/></g><g><path d="m256 0h-69.507l-11.857 31.697-31.698 11.858v254.945h113.062l20-144.5z" fill="#ffe0ba"/><path d="m186.493 0-43.555 43.555h43.555z" fill="#ffc377"/></g><path d="m256 0h113.062v298.5h-113.062z" fill="#ffc377"/><g><g><path d="m256.794 139.049h30v83.587h-30z" fill="#ae2d2d" transform="matrix(.926 -.378 .378 .926 -48.186 116.12)"/></g><g><path d="m198.413 165.843h83.587v30h-83.587z" fill="#ff415b" transform="matrix(.378 -.926 .926 .378 -18 334.897)"/></g><g><path d="m256 173.735c-17.445 0-31.587-14.142-31.587-31.587s14.142-31.587 31.587-31.587l10 31.478z" fill="#ffc377"/><path d="m256 110.561c17.445 0 31.587 14.142 31.587 31.587s-14.142 31.587-31.587 31.587z" fill="#ffa07b"/><g><path d="m239.413 142.148c0-9.146 7.441-16.587 16.587-16.587l10-15-10-15c-25.688 0-46.587 20.899-46.587 46.587s20.899 46.587 46.587 46.587l10-15-10-15c-9.146 0-16.587-7.441-16.587-16.587z" fill="#ff6c6c"/><path d="m256 95.561v30c9.146 0 16.587 7.441 16.587 16.587s-7.441 16.587-16.587 16.587v30c25.688 0 46.587-20.899 46.587-46.587s-20.899-46.587-46.587-46.587z" fill="#ff415b"/></g></g></g></g></svg>