<svg id="Capa_1" enable-background="new 0 0 511.001 511.001" height="512" viewBox="0 0 511.001 511.001" width="512" xmlns="http://www.w3.org/2000/svg"><g><g><g><g><g><path d="m7.5 45.667h496.001v315h-496.001z" fill="#faef93"/></g><g><path d="m31 338v-292.333h-23.5v315h496.001v-22.667z" fill="#efc17a"/></g><g><path d="m434.983 75.667h-359.483l-36.999 37.003v179.994l36.999 38.003h360.999l37.002-38.003v-179.994z" fill="#fff"/></g><g><path d="m88.501 307.661-26.993-27.998v-190l-23.007 23.006v179.995l36.999 38.003h360.999l22.4-23.006z" fill="#c8d1da"/></g><g><path d="m308.35 330.667v134.667h4.148l40.673-28.671 40.333 28.671h4.488v-134.667z" fill="#9eb6f4"/></g><g><path d="m365.504 418.674-35.821 25.327v-113.334h-21.333v134.667h4.148l40.673-28.671 40.333 28.671h4.488v-22.167z" fill="#6e91ef"/></g><g><path d="m83.167 120.667h149.665v29.666h-149.665z" fill="#7bdaa9"/></g><g><path d="m83.167 120.667h22.333v29.666h-22.333z" fill="#498790"/></g><g><path d="m396.466 330.649h-87.115l-31.505-31.504v-86.64l31.505-31.505h87.114l32.031 31.505v86.64z" fill="#faef93"/></g><g><path d="m419.21 307.625h-87.115l-31.201-31.528v-86.64l-23.048 23.047v86.641l31.505 31.504h87.115l32.03-31.504v-.374z" fill="#efc17a"/></g><g><path d="m379.394 301.145h-52.764l-19.083-19.081v-52.478l19.083-19.082h52.764l19.401 19.082v52.478z" fill="#efc17a"/></g><g><path d="m333.782 277.983-3.073-3.072v-64.408h-4.079l-19.083 19.083v52.477l19.083 19.083h52.764l19.401-19.083v-4.08z" fill="#e68f5e"/></g><g><path d="m330.667 232.667h15v15h-15z" fill="#fff"/></g></g></g></g><g><path d="m0 38.167v330h45.5v-15h-30.5v-300h481.001v300h-75.501v15h90.501v-330z"/><path d="m60.5 353.167h14.999v15h-14.999z"/><path d="m375.5 68.167h15v15h-15z"/><path d="m360.5 68.167h-288.107l-41.392 41.396v186.148l41.334 42.456h205.511v-15h-199.18l-32.665-33.551v-173.84l32.605-32.609h281.894z"/><path d="m438.606 338.167 42.394-42.397v-186.266l-42.452-41.337h-33.048v15h26.951l33.549 32.667v173.723l-33.608 33.61h-17.625l21.228-20.88v-92.926l-36.46-35.862h-93.291l-35.899 35.898v92.854l30.504 30.503v20.413h-210.349v15h210.35v104.666h14.026l38.277-26.982 37.957 26.982h14.382v-134.666zm-153.26-122.556 27.112-27.111h80.937l27.601 27.147v80.355l-27.6 27.146h-80.938l-27.112-27.11zm67.843 211.863-37.339 26.32v-115.645h74.642v115.842z"/><path d="m240.332 113.167h-164.665v44.666h164.665zm-15 29.666h-134.665v-14.666h134.665z"/><path d="m120.5 172.5h120v15h-120z"/><path d="m75.5 172.5h30v15h-30z"/><path d="m210.5 203.003h30v15h-30z"/><path d="m75.5 203.003h120v15h-120z"/><path d="m75.5 278.085h75v15h-75z"/><path d="m384.6 307.645 20.892-18.872v-26.038h-15v19.374l-11.663 10.536h-52.143l-10.836-10.835v-52.447l11.361-11.36h51.468l11.813 11.432v18.232h15v-24.589l-20.743-20.075h-63.751l-20.148 20.147v64.873l19.623 19.622z"/></g></g></svg>