<svg id="Capa_1" enable-background="new 0 0 512 512" height="512" viewBox="0 0 512 512" width="512" xmlns="http://www.w3.org/2000/svg"><g><path d="m512 76v360c0 8.28-6.72 15-15 15h-482c-8.28 0-15-6.72-15-15v-360c0-8.28 6.72-15 15-15h41l59.5 10 60.5-10h321c8.28 0 15 6.72 15 15z" fill="#f5f2f1"/><path d="m512 76v360c0 8.28-6.72 15-15 15h-241v-390h241c8.28 0 15 6.72 15 15z" fill="#e8e1de"/><path d="m176 61v315c0 11.996-13.385 19.097-23.33 12.48l-36.63-24.45-36.73 24.45c-9.905 6.61-23.31-.474-23.31-12.48v-315z" fill="#ffddce"/><path d="m176 61v315c0 12-13.39 19.1-23.33 12.48l-36.63-24.45-.54.36v-303.39z" fill="#ffccbd"/><circle cx="115.5" cy="225.5" fill="#f47160" r="74.5"/><path d="m190 225.5c0 41.099-33.444 74.5-74.5 74.5v-149c41.096 0 74.5 33.445 74.5 74.5z" fill="#fc5832"/><circle cx="115.5" cy="225.5" fill="#eb8b7f" r="44.5"/><path d="m160 225.5c0 24.54-19.96 44.5-44.5 44.5v-89c24.54 0 44.5 19.96 44.5 44.5z" fill="#f47160"/><path d="m286 181h105c8.284 0 15-6.716 15-15s-6.716-15-15-15h-105c-8.284 0-15 6.716-15 15s6.716 15 15 15z" fill="#55696e"/><path d="m241 241h195c8.284 0 15-6.716 15-15s-6.716-15-15-15h-195c-8.284 0-15 6.716-15 15s6.716 15 15 15z" fill="#607881"/><path d="m451 226c0 8.28-6.72 15-15 15h-180v-30h180c8.28 0 15 6.72 15 15z" fill="#55696e"/><path d="m436 271h-195c-8.284 0-15 6.716-15 15s6.716 15 15 15h195c8.284 0 15-6.716 15-15s-6.716-15-15-15z" fill="#607881"/><path d="m451 286c0 8.28-6.72 15-15 15h-180v-30h180c8.28 0 15 6.72 15 15z" fill="#55696e"/><path d="m436 331h-195c-8.284 0-15 6.716-15 15s6.716 15 15 15h195c8.284 0 15-6.716 15-15s-6.716-15-15-15z" fill="#607881"/><path d="m451 346c0 8.28-6.72 15-15 15h-180v-30h180c8.28 0 15 6.72 15 15z" fill="#55696e"/></g></svg>